<svg xmlns="http://www.w3.org/2000/svg"><defs><font id="adam.cg_proregular" horiz-adv-x="1423"><font-face units-per-em="2048" ascent="1536" descent="-512"/><glyph horiz-adv-x="0"/><glyph horiz-adv-x="682"/><glyph horiz-adv-x="0"/><glyph horiz-adv-x="0"/><glyph horiz-adv-x="614"/><glyph horiz-adv-x="614"/><glyph horiz-adv-x="614"/><glyph horiz-adv-x="614"/><glyph unicode="!" horiz-adv-x="567" d="M123 1602h321L395 373q-46 24-110 24-63 0-113-26zm24-1467q0 57 40.5 97t97.5 40q56 0 95.5-40t39.5-97q0-55-40-95T285 0q-57 0-97.5 39.5T147 135z"/><glyph unicode="&quot;" horiz-adv-x="763" d="m147 1139 25 381h213l-94-381H147zm267 0 24 381h213l-94-381H414z"/><glyph unicode="#" horiz-adv-x="1767" d="M160 367v237h305l84 311H301v238h311l117 436h246l-117-436h326l116 436h246l-116-436h235V915h-299l-82-311h240V367h-303L1122 0H874l99 367H649L551 0H303l98 367H160zm553 237h323l84 311H795z"/><glyph unicode="$" horiz-adv-x="1095" d="m86 203 197 153q71-90 157-123 16-7 56-16v490q-3 4-13 14L291 905q-88 83-125 191-31 103-2 200 27 102 117 179 81 69 190 90 16 4 25 4v135h143v-139q27-5 68-19 125-47 215-162l-195-155q-39 52-88 76V918l88-89q76-72 123-114 99-95 137-209 35-109 4-221-32-115-128-199.5T639-25v-139H496v131q-76 6-146 33Q196 60 86 203zm315 1024q-18-66 62-142l33-32v262q-34-12-60-35.5t-35-52.5zm238-991q92 42 113 116 24 89-72 180-14 12-41 39V236z"/><glyph unicode="%" horiz-adv-x="1437" d="M125 1161q0 151 47 240 26 54 76 86 47 33 114 33t117-33q48-33 74-86 47-84 47-240 0-150-47-239-26-54-76-86-54-33-115-33-60 0-114 33-45 29-76 86-47 89-47 239zM205 0l829 1520h197L401 0H205zm33 1161q0-122 34-186 29-60 90-60 59 0 93 60 32 60 32 186 0 129-32 189-32 57-93 57-62 0-90-57-34-64-34-189zm600-803q0 156 47 240 26 54 73 86 50 33 117 33 68 0 115-33 45-29 76-86 47-89 47-240 0-150-47-239-26-54-76-86-47-33-115-33-67 0-117 33-45 29-73 86-47 84-47 239zm112 0q0-126 33-188 34-57 92-57 61 0 90 57 35 65 35 188 0 124-35 189-29 57-90 57-58 0-92-57-33-62-33-189z"/><glyph unicode="&amp;" horiz-adv-x="1210" d="M96 475q0 169 119 301 29 29 59 53-45 43-73 93-51 83-51 192 0 91 38 166 38 74 105 129 133 111 319 111 119 0 222-47 119-58 182-158l-189-123q-32 49-90 76-60 26-125 26-106 0-174-59-63-51-63-121 0-89 94-147 134-82 424-82V659q-224 0-381 46-84-26-137-90t-53-140q0-95 86-168 99-80 235-80 127 0 219 70v201h228v-602H862V41Q764 2 643 2 419 2 264 133q-74 60-121 152-47 89-47 190z"/><glyph unicode="'" horiz-adv-x="440" d="m135 1139 25 381h213l-94-381H135z"/><glyph unicode="(" horiz-adv-x="716" d="M68 758q0 312 104 579 101 266 283 451l168-168q-146-149-230-367-88-235-88-495 0-261 88-496 83-216 230-366L455-272Q272-86 172 178 68 445 68 758z"/><glyph unicode=")" horiz-adv-x="716" d="M94-104Q239 41 324 262q88 235 88 496 0 260-88 495-86 223-230 367l168 168q180-183 285-451 102-270 102-579 0-310-102-580Q444-86 264-272z"/><glyph unicode="*" horiz-adv-x="604" d="m74 1305 41 149 137-65-25 131h154l-23-123 121 57 41-149-125-9 88-104-133-76-45 127-45-127-133 76 86 102z"/><glyph unicode="+" horiz-adv-x="1265" d="M160 657v205h370v371h205V862h371V657H735V287H530v370H160z"/><glyph unicode="," horiz-adv-x="516" d="M111 143q0 59 41.5 100.5T254 285q59 0 101-42t42-100q0-26-10-53L279-219h-82L246 0q-57 3-96 44t-39 99z"/><glyph unicode="-" horiz-adv-x="956" d="M160 657v205h639V657H160z"/><glyph unicode="." horiz-adv-x="516" d="M111 143q0 59 41.5 101.5T254 287q58 0 100.5-42.5T397 143q0-60-42-101.5T254 0q-60 0-101.5 41.5T111 143z"/><glyph unicode="/" horiz-adv-x="1005" d="m160-199 448 1901h238L397-199H160z"/><glyph unicode="0" horiz-adv-x="1396" d="M113 762q0 294 135 506 79 117 184 180 118 72 266 72 150 0 265-72 111-64 184-184 137-210 137-506 0-292-135-504-74-117-182-182Q844 0 702 0 559 0 436 72q-106 62-186 184-137 210-137 506zm237 0q0-106 26.5-205T449 385q96-147 253-147 154 0 246 145 96 148 96 375 0 226-96 377-94 147-250 147-157 0-249-145-46-71-72.5-170T350 762z"/><glyph unicode="1" horiz-adv-x="727" d="m2 1096 567 424V0H332v1047L143 905z"/><glyph unicode="2" horiz-adv-x="1251" d="m63 0 148 193q320 423 563 747 69 94 82 172 6 57-16 92-25 41-78 62t-113 12q-72-13-119-57-58-55-79-144l-213 125q43 115 131 197 107 96 243 117 132 20 253-31.5t182-155.5q68-112 47-252-18-138-127-280-289-386-418-555h581V0H63z"/><glyph unicode="3" horiz-adv-x="1292" d="m109 184 135 195q168-118 321.5-138T825 301q77 59 110 150t5 174q-27 78-102 123-92 57-256 57l-203-2 262 481H205v236h837l-272-496q106-24 193-74 146-90 200-250 54-153-2-321-59-166-192-266Q819 0 623 0h-35Q354 15 109 184z"/><glyph unicode="4" horiz-adv-x="1247" d="m2 266 997 1333V504h144V266H999V0H762v266H2zm477 238h283v379z"/><glyph unicode="5" horiz-adv-x="1273" d="m96 182 133 197q198-135 363-141 130-6 213 65 66 54 88 137 19 85-10 154-42 90-150 133-141 60-379 29l-153-23 98 787h725v-236H508l-35-280q194 6 350-58 201-83 275-256 65-146 25-305.5T956 121Q811 0 608 0h-26Q346 9 96 182z"/><glyph unicode="6" horiz-adv-x="1226" d="M141 746.5Q169 1020 315 1229q112 155 258 227 154 77 332 62v-240q-122 18-225-35-98-48-170-151-56-78-94-193 101 49 231 49 235 0 365-141 121-127 121-315 0-91-31.5-178T1012 160Q946 83 855 41.5T662 0Q514 0 399 70T217 272q-104 201-76 474.5zM385 514q12-72 43-133 73-143 234-143 103 0 169 75 64 76 64 179 0 96-55 151-65 68-193 68-145 0-219-105-34-50-43-92z"/><glyph unicode="7" horiz-adv-x="1122" d="m139 0 590 1282H143v238h959L401 0H139z"/><glyph unicode="8" horiz-adv-x="1243" d="M115 467q0 191 133 324 7 7 37 32-119 116-119 287 0 169 121 287 132 123 340 123 207 0 334-127 118-118 118-287 0-166-116-285 6-5 18-16.5t18-16.5q129-135 129-321 0-190-129-322Q865 0 631 0 393 0 250 143 115 275 115 467zm237 0q0-93 64-154 75-75 215-75 125 0 198 73 60 60 60 156 0 94-62 156-70 73-200 73-113 0-194-59t-81-170zm51 643q0-67 50-117 62-59 178-59 106 0 157.5 51.5T840 1106q0 72-47 119-60 57-166 57-114 0-174-57-50-47-50-115z"/><glyph unicode="9" horiz-adv-x="1228" d="M96 1028q0 91 32 178.5t89 155.5q66 76 157 117t195 41q146 0 260.5-70t182.5-201q105-201 76.5-475T913 293Q804 139 655 63q-75-37-169.5-53T299 2v240q63-8 131.5 1T549 276q100 50 170 154 54 75 96 193-110-52-233-52-228 0-365 142Q96 840 96 1028zm238 0q0-90 55-151 68-68 193-68 147 0 219 106 28 36 45 93-16 74-45 131-73 143-232 143-105 0-172-76-63-76-63-178z"/><glyph unicode=":" horiz-adv-x="516" d="M111 143q0 59 41.5 101.5T254 287q58 0 100.5-42.5T397 143q0-60-42-101.5T254 0q-60 0-101.5 41.5T111 143zm0 805q0 60 41.5 102t101.5 42q59 0 101-42t42-102q0-58-42.5-100.5T254 805q-60 0-101.5 42T111 948z"/><glyph unicode=";" horiz-adv-x="516" d="M111 143q0 59 41.5 100.5T254 285q59 0 101-42t42-100q0-26-10-53L279-219h-82L246 0q-57 3-96 44t-39 99zm0 805q0 60 41.5 102t101.5 42q59 0 101-42t42-102q0-58-42.5-100.5T254 805q-60 0-101.5 42T111 948z"/><glyph unicode="&lt;" horiz-adv-x="1056" d="m160 764 448 450h289L446 762l451-457H608z"/><glyph unicode="=" horiz-adv-x="1163" d="M160 471v205h846V471H160zm0 373v205h846V844H160z"/><glyph unicode="&gt;" horiz-adv-x="1056" d="m160 305 448 457-448 452h286l451-450-451-459H160z"/><glyph unicode="?" horiz-adv-x="1206" d="M102 1145q6 163 103 280 93 112 250 154 87 23 163 23 129 0 240.5-49.5T1034 1417q92-125 62-284-35-164-193-342l-37-37q-78-78-123-158-59-109-65-225-58 28-129 28-73 0-123-28 9 174 96 327 52 96 156 205 12 10 29 27 102 115 131 205 34 94-15 159-37 52-121 74-45 10-84 10-48 0-88-12-74-18-118-68-55-61-58-153H102zM410 137q0 57 40 97t97 40 97-40 40-97-40-97-97-40-97 40-40 97z"/><glyph unicode="@" horiz-adv-x="1320" d="M117 420q37 268 37 270 18 128 88 238 65 99 164 164 92 60 201 84.5t216 9.5q90-12 162-49 75-40 131-105 118-142 90-360l-39-271q-18-135-77-221-55-80-129-110-47-20-95-16t-82 30q-50 38-47 102H586q-100 0-160 64-56 65-41 168 12 89 74 151 69 66 172 66h170l6 55q9 60-39 80-40 19-101 6t-92-53l-108 86q63 75 168 100 107 23 188-14 67-29 99.5-88.5T944 672l-67-482q18 0 36 9 14 6 28.5 18t33 36 34 67.5T1032 420l37 270q12 80-4 150-14 56-53 104-76 89-207 107-82 9-166-9-87-18-158-65-162-107-190-305l-39-271q-21-160 61-254 54-63 166-102Q615-2 821-2v-137q-232 0-387 55Q290-33 209 59q-69 78-90 187-14 79-2 174zm391-19q-6-48 12-69 18-23 66-23h168l28 201H631q-55 0-86-31-31-28-37-78z"/><glyph unicode="A" d="m51 0 662 1589L1372 0h-260L983 326H442L313 0H51zm477 539h369l-184 462z"/><glyph unicode="B" horiz-adv-x="1204" d="M160 0v1520h336q246 0 376-95 69-51 105-131 31-73 31-159 0-155-119-279 22-14 69-55 68-67 105-150 39-88 39-200 0-114-49-205-50-87-140-146Q755 0 496 0H160zm237 215h99q197 0 301 66 92 60 92 170 0 117-80 194-46 46-117 76-7-3-28.5-12.5T629 694q-90-37-232-69V215zm0 631q85 18 156 49 118 48 176 106 64 61 64 134 0 83-50 118-72 54-247 54h-99V846z"/><glyph unicode="C" horiz-adv-x="1386" d="M96 760q0 152 60 297 60 138 163 241 108 108 242 162 135 60 295 60 159 0 297-60 5-2 16.5-7t16.5-7v-281q-142 117-330 117-105 0-200.5-39.5T487 1128q-74-74-113.5-169T334 760t39.5-199.5T487 391t169.5-113.5T856 238t199.5 39.5T1225 391q23 23 51 58V125q-65-42-123-66Q1011 0 856 0 700 0 561 59q-135 57-242 164-105 105-163 242-60 142-60 295z"/><glyph unicode="D" horiz-adv-x="1382" d="M160 0v1520h360q189 0 332-60 143-55 244-168 184-202 184-532 0-331-184-533Q995 114 852 59 704 0 520 0H160zm237 238h123q263 0 400 149 122 134 122 373t-122 373q-134 149-400 149H397V238z"/><glyph unicode="E" horiz-adv-x="1191" d="M160 0v1520h911v-213H397V901h555V686H397V215h674V0H160z"/><glyph unicode="F" horiz-adv-x="1193" d="M160 0v1520h913v-213H397V901h555V686H397V0H160z"/><glyph unicode="G" horiz-adv-x="1454" d="M100 760v39q10 140 60 258 59 136 164 241 109 109 241 162 135 60 295 60h39q13 0 19-2 134-9 256-64 0-2 2-2l12-6h2v-281q-41 36-103 66-55 25-94 35-4 0-6 2h-6q-2 2-8 2-2 0-4 2-4 1-13.5 2t-13.5 2h-4q-1 0-4 1t-4 1h-4q-6 0-8 2h-19q-1 0-3 1t-3 1h-33q-147 0-268-74-2-2-10-6-48-29-90-74-2-2-12-11t-15-15q0-2-2-2-12-14-27-37l-4-4q-2-3-6-9.5t-6-9.5q-4-4-4-8-46-73-64-155-2-2-2-5-8-39-10-61v-23q-2-10-2-28 0-17 2-27 3-60 18-115 38-131 134-227 74-74 169-113.5T860 238h14q5 0 7 2h30q0 2 4 2h13q7 1 22.5 4t22.5 4q2 0 4 2 6 0 8 2h6q2 2 6 2 2 2 9 2l4 2q44 12 84 33h2v280H809v215h524V162l-53-37q-2 0-4-2-4-4-8-4-4-4-6-4-4-4-9-4-6-6-8-7-1-1-3-2t-3-2-3-2-3-2q-2-1-5-2t-5-2q-1-1-3-2t-3-2q-4-4-11-4l-4-4h-4q-2-2-10-6-2-1-7-3t-7-3q-1 0-3-2Q1046 9 899 0h-39Q731 0 621 39h-3q-4 1-11 4t-11 4q-5 2-15.5 6T565 59q-31 12-73 37-96 52-168 127-107 107-164 242-48 115-56 219-4 50-4 76z"/><glyph unicode="H" horiz-adv-x="1398" d="M160 0v1520h237V870h607v650h237V0h-237v655H397V0H160z"/><glyph unicode="I" horiz-adv-x="552" d="M160 0v1520h237V0H160z"/><glyph unicode="J" horiz-adv-x="860" d="M82 6v244q46-12 96-12 134 0 217 67 84 72 84 211v1004h240V516q0-247-172-393Q402 0 178 0q-50 0-96 6z"/><glyph unicode="K" horiz-adv-x="1337" d="M160 0v1520h237V893l488 627h299L627 788 1296 0H999L397 688V0H160z"/><glyph unicode="L" horiz-adv-x="1046" d="M160 0v1520h237V215h635V0H160z"/><glyph unicode="M" horiz-adv-x="1746" d="M160 0v1589L874 524l715 1065V0h-239v807L874 98 397 807V0H160z"/><glyph unicode="N" horiz-adv-x="1511" d="M160 0v1591l954-1046v975h240V-70L397 977V0H160z"/><glyph unicode="O" horiz-adv-x="1738" d="M111 760q0 155 59 297 57 130 164 241 104 104 241 162 142 60 295 60 152 0 297-60 136-59 242-162 104-107 162-241 59-142 59-297 0-156-59-295t-162-242q-110-107-242-164Q1025 0 870 0 714 0 575 59q-134 57-241 164T170 465q-59 139-59 295zm237 0q0-104 40-199.5T502 391t169-113.5T870 238t199.5 39.5T1239 391t114 169.5 40 199.5-40 199-114 169-169.5 114-199.5 40-199-40-169-114-114-169-40-199z"/><glyph unicode="P" horiz-adv-x="1148" d="M160 0v1520h450q244 0 379-150 123-135 123-352 0-220-123-352-132-152-379-152H397V0H160zm237 729h213q147 0 221 80 68 75 68 209 0 132-68 207-76 82-221 82H397V729z"/><glyph unicode="Q" horiz-adv-x="1732" d="M96 760q0 152 60 297 60 138 163 241t242 162q135 60 295 60 159 0 297-60 141-61 242-162 100-100 161-241 60-138 60-297 0-160-60-295-60-141-161-242-3-3-8.5-8t-8.5-8l138-180-173-129-139 186q-8-4-25.5-12.5T1153 59Q1011 0 856 0 700 0 561 59q-135 57-242 164-105 105-163 242-60 142-60 295zm238 0q0-104 39.5-199.5T487 391t169.5-113.5T856 238q107 0 203 41L952 420l172 129 111-150q143 152 143 361 0 104-39.5 199T1225 1128t-169.5 114-199.5 40-199.5-40T487 1128 373.5 959 334 760z"/><glyph unicode="R" horiz-adv-x="1312" d="M160 0v1520h450q247 0 379-152 123-135 123-352 0-215-123-350-73-80-176-117L1223 0H954L571 514H397V0H160zm237 727h213q146 0 219 82 68 73 68 207 0 136-68 209-71 80-219 80H397V727z"/><glyph unicode="S" horiz-adv-x="1081" d="m98 227 189 148q67-89 149-119 44-18 88-18 25 0 51 6 58 10 102 45.5t58 81.5q5 17 5 34 0 67-74 138-95 88-187 180L293 899q-87 84-117 182-17 53-17 105 0 45 13 88 26 96 113 170 81 68 182 86 41 9 83 8 71 0 142-25 121-48 207-153l-186-150q-74 89-165 89-18 0-36-3-40-8-71-32t-40-56q-3-12-3-25 0-53 61-112l254-244q48-48 114-110 99-88 134-199 19-56 19-113 0-50-15-100-32-111-125-191.5T623 8q-41-8-93-8-98 0-180 33Q203 93 98 227z"/><glyph unicode="T" horiz-adv-x="1196" d="M61 1307v213h1076v-213H719V0H479v1307H61z"/><glyph unicode="U" horiz-adv-x="1415" d="M145 516v1004h238V516q0-135 94-207 90-71 232-71 138 0 231 71 92 71 92 207v1004h240V516q0-123-51-231-51-97-136-164Q930 0 709 0 487 0 332 121q-87 66-135 164-52 104-52 231z"/><glyph unicode="V" horiz-adv-x="1449" d="M51 1520h262L741 518l400 1002h258L748-68z"/><glyph unicode="W" horiz-adv-x="2295" d="M84 1520h262L774 518l252 631 123 313 133-309 270-635 400 1002h260L1559-68l-402 916L780-68z"/><glyph unicode="X" horiz-adv-x="1640" d="m117 0 553 813-482 707h299l332-488 334 488h299L969 813 1524 0h-299L819 594 416 0H117z"/><glyph unicode="Y" horiz-adv-x="1409" d="M53 1520h277l377-521 376 521h275L825 795V0H588v795z"/><glyph unicode="Z" horiz-adv-x="1443" d="m104 0 781 1282H274v238h1035L528 238h760V0H104z"/><glyph unicode="[" horiz-adv-x="667" d="M160-262v2040h454v-144H397V-119h217v-143H160z"/><glyph unicode="\" horiz-adv-x="1005" d="M160 1702h237L846-199H608z"/><glyph unicode="]" horiz-adv-x="665" d="M53-119h217v1753H53v144h455V-262H53v143z"/><glyph unicode="^" horiz-adv-x="1026" d="m51 752 473 768 447-768H750l-232 366-242-366H51z"/><glyph unicode="_" horiz-adv-x="1597" d="M160-143h1278v-205H160v205z"/><glyph unicode="`" horiz-adv-x="462" d="M45 1520h225l101-252H221z"/><glyph unicode="a" d="m51 0 662 1589L1372 0h-260L983 326H442L313 0H51zm477 539h369l-184 462z"/><glyph unicode="b" horiz-adv-x="1204" d="M160 0v1520h336q246 0 376-95 69-51 105-131 31-73 31-159 0-155-119-279 22-14 69-55 68-67 105-150 39-88 39-200 0-114-49-205-50-87-140-146Q755 0 496 0H160zm237 215h99q197 0 301 66 92 60 92 170 0 117-80 194-46 46-117 76-7-3-28.5-12.5T629 694q-90-37-232-69V215zm0 631q85 18 156 49 118 48 176 106 64 61 64 134 0 83-50 118-72 54-247 54h-99V846z"/><glyph unicode="c" horiz-adv-x="1386" d="M96 760q0 152 60 297 60 138 163 241 108 108 242 162 135 60 295 60 159 0 297-60 5-2 16.5-7t16.5-7v-281q-142 117-330 117-105 0-200.5-39.5T487 1128q-74-74-113.5-169T334 760t39.5-199.5T487 391t169.5-113.5T856 238t199.5 39.5T1225 391q23 23 51 58V125q-65-42-123-66Q1011 0 856 0 700 0 561 59q-135 57-242 164-105 105-163 242-60 142-60 295z"/><glyph unicode="d" horiz-adv-x="1382" d="M160 0v1520h360q189 0 332-60 143-55 244-168 184-202 184-532 0-331-184-533Q995 114 852 59 704 0 520 0H160zm237 238h123q263 0 400 149 122 134 122 373t-122 373q-134 149-400 149H397V238z"/><glyph unicode="e" horiz-adv-x="1191" d="M160 0v1520h911v-213H397V901h555V686H397V215h674V0H160z"/><glyph unicode="f" horiz-adv-x="1091" d="M160 0v1520h913v-213H397V901h555V686H397V0H160z"/><glyph unicode="g" horiz-adv-x="1454" d="M100 760v39q10 140 60 258 59 136 164 241 109 109 241 162 135 60 295 60h39q13 0 19-2 134-9 256-64 0-2 2-2l12-6h2v-281q-41 36-103 66-55 25-94 35-4 0-6 2h-6q-2 2-8 2-2 0-4 2-4 1-13.5 2t-13.5 2h-4q-1 0-4 1t-4 1h-4q-6 0-8 2h-19q-1 0-3 1t-3 1h-33q-147 0-268-74-2-2-10-6-48-29-90-74-2-2-12-11t-15-15q0-2-2-2-12-14-27-37l-4-4q-2-3-6-9.5t-6-9.5q-4-4-4-8-46-73-64-155-2-2-2-5-8-39-10-61v-23q-2-10-2-28 0-17 2-27 3-60 18-115 38-131 134-227 74-74 169-113.5T860 238h14q5 0 7 2h30q0 2 4 2h13q7 1 22.5 4t22.5 4q2 0 4 2 6 0 8 2h6q2 2 6 2 2 2 9 2l4 2q44 12 84 33h2v280H809v215h524V162l-53-37q-2 0-4-2-4-4-8-4-4-4-6-4-4-4-9-4-6-6-8-7-1-1-3-2t-3-2-3-2-3-2q-2-1-5-2t-5-2q-1-1-3-2t-3-2q-4-4-11-4l-4-4h-4q-2-2-10-6-2-1-7-3t-7-3q-1 0-3-2Q1046 9 899 0h-39Q731 0 621 39h-3q-4 1-11 4t-11 4q-5 2-15.5 6T565 59q-31 12-73 37-96 52-168 127-107 107-164 242-48 115-56 219-4 50-4 76z"/><glyph unicode="h" horiz-adv-x="1398" d="M160 0v1520h237V870h607v650h237V0h-237v655H397V0H160z"/><glyph unicode="i" horiz-adv-x="552" d="M160 0v1520h237V0H160z"/><glyph unicode="j" horiz-adv-x="860" d="M82 6v244q46-12 96-12 134 0 217 67 84 72 84 211v1004h240V516q0-247-172-393Q402 0 178 0q-50 0-96 6z"/><glyph unicode="k" horiz-adv-x="1390" d="M160 0v1520h237V893l488 627h299L627 788 1296 0H999L397 688V0H160z"/><glyph unicode="l" horiz-adv-x="1046" d="M160 0v1520h237V215h635V0H160z"/><glyph unicode="m" horiz-adv-x="1746" d="M160 0v1589L874 524l715 1065V0h-239v807L874 98 397 807V0H160z"/><glyph unicode="n" horiz-adv-x="1511" d="M160 0v1591l954-1046v975h240V-70L397 977V0H160z"/><glyph unicode="o" horiz-adv-x="1738" d="M111 760q0 155 59 297 57 130 164 241 104 104 241 162 142 60 295 60 152 0 297-60 136-59 242-162 104-107 162-241 59-142 59-297 0-156-59-295t-162-242q-110-107-242-164Q1025 0 870 0 714 0 575 59q-134 57-241 164T170 465q-59 139-59 295zm237 0q0-104 40-199.5T502 391t169-113.5T870 238t199.5 39.5T1239 391t114 169.5 40 199.5-40 199-114 169-169.5 114-199.5 40-199-40-169-114-114-169-40-199z"/><glyph unicode="p" horiz-adv-x="1148" d="M160 0v1520h450q244 0 379-150 123-135 123-352 0-220-123-352-132-152-379-152H397V0H160zm237 729h213q147 0 221 80 68 75 68 209 0 132-68 207-76 82-221 82H397V729z"/><glyph unicode="q" horiz-adv-x="1732" d="M96 760q0 152 60 297 60 138 163 241t242 162q135 60 295 60 159 0 297-60 141-61 242-162 100-100 161-241 60-138 60-297 0-160-60-295-60-141-161-242-3-3-8.5-8t-8.5-8l138-180-173-129-139 186q-8-4-25.5-12.5T1153 59Q1011 0 856 0 700 0 561 59q-135 57-242 164-105 105-163 242-60 142-60 295zm238 0q0-104 39.5-199.5T487 391t169.5-113.5T856 238q107 0 203 41L952 420l172 129 111-150q143 152 143 361 0 104-39.5 199T1225 1128t-169.5 114-199.5 40-199.5-40T487 1128 373.5 959 334 760z"/><glyph unicode="r" horiz-adv-x="1312" d="M160 0v1520h450q247 0 379-152 123-135 123-352 0-215-123-350-73-80-176-117L1223 0H954L571 514H397V0H160zm237 727h213q146 0 219 82 68 73 68 207 0 136-68 209-71 80-219 80H397V727z"/><glyph unicode="s" horiz-adv-x="1081" d="m98 227 189 148q67-89 149-119 44-18 88-18 25 0 51 6 58 10 102 45.5t58 81.5q5 17 5 34 0 67-74 138-95 88-187 180L293 899q-87 84-117 182-17 53-17 105 0 45 13 88 26 96 113 170 81 68 182 86 41 9 83 8 71 0 142-25 121-48 207-153l-186-150q-74 89-165 89-18 0-36-3-40-8-71-32t-40-56q-3-12-3-25 0-53 61-112l254-244q48-48 114-110 99-88 134-199 19-56 19-113 0-50-15-100-32-111-125-191.5T623 8q-41-8-93-8-98 0-180 33Q203 93 98 227z"/><glyph unicode="t" horiz-adv-x="1196" d="M61 1307v213h1076v-213H719V0H479v1307H61z"/><glyph unicode="u" horiz-adv-x="1415" d="M145 516v1004h238V516q0-135 94-207 90-71 232-71 138 0 231 71 92 71 92 207v1004h240V516q0-123-51-231-51-97-136-164Q930 0 709 0 487 0 332 121q-87 66-135 164-52 104-52 231z"/><glyph unicode="v" horiz-adv-x="1449" d="M51 1520h262L741 518l400 1002h258L748-68z"/><glyph unicode="w" horiz-adv-x="2295" d="M84 1520h262L774 518l252 631 123 313 133-309 270-635 400 1002h260L1559-68l-402 916L780-68z"/><glyph unicode="x" horiz-adv-x="1640" d="m117 0 553 813-482 707h299l332-488 334 488h299L969 813 1524 0h-299L819 594 416 0H117z"/><glyph unicode="y" horiz-adv-x="1409" d="M53 1520h256l398-541 397 541h254L825 795V0H588v795z"/><glyph unicode="z" horiz-adv-x="1443" d="m104 0 781 1282H274v238h1035L528 238h760V0H104z"/><glyph unicode="{" horiz-adv-x="737" d="M49 643v227q71 0 115 15 22 9 29 16 4 4 4 17v518q0 107 41 184 40 76 120 117 38 19 89 28.5t84 11 90 1.5v-230q-127 0-162-16-33-13-33-96V918q0-96-61-166 61-67 61-162V80q0-78 37-96 39-19 158-19v-227q-54 0-85.5 1.5t-82 11T365-221q-83 39-123 112-45 79-45 189v510q0 10-4 14-15 15-43 23-21 7-46 11t-40 4z"/><glyph unicode="|" horiz-adv-x="509" d="M160-344v1978h196V-344H160z"/><glyph unicode="}" horiz-adv-x="737" d="M119-35q120 0 157 19 39 20 39 96v510q0 96 60 162-60 69-60 166v518q0 82-34 96-33 16-162 16v230q57 0 90-1.5t83.5-11T381 1737q81-41 121-117 41-77 41-184V918q0-13 4-17 6-6 28-16 44-15 115-15V643q-51 0-100-16-9-3-17-6.5t-12-6-8.5-6-5.5-4.5q-4-4-4-14V80q0-113-43-189-44-74-125-112-38-19-88.5-28.5t-82-11T119-262v227z"/><glyph unicode="~" horiz-adv-x="1435" d="M102 578v47q0 86 43 159 35 60 109 111 111 66 256 63 139 0 272-65 81-40 158.5-43t112.5 24q43 27 43 89v47h233v-47q0-95-43-168-42-72-112-117-98-62-231-60t-263 66q-57 28-117 37.5t-107.5 2T377 696q-43-25-43-71v-47H102z"/><glyph unicode="¡" horiz-adv-x="567" d="m123-446 49 1228q46-24 113-24 60 0 110 26l49-1230H123zm24 1464q0 57 40.5 97t97.5 40q56 0 95.5-40t39.5-97q0-56-40-95.5T285 883q-57 0-97.5 39.5T147 1018z"/><glyph unicode="¢" horiz-adv-x="956" d="M63 760q0 111 43 209 41 96 115 170 72 72 170 114 46 18 76 25v160h143v-144q113 0 221-51l-73-151q-64 33-148 36V393q83 3 152 37 32 18 39 23l94-140q-3-2-57-32-109-53-228-56V82H467v160q-36 8-76 24-102 47-170 115-74 74-115 170-43 101-43 209zm168 0q0-151 109-260 54-54 127-82v686q-70-27-127-84-109-109-109-260z"/><glyph unicode="£" horiz-adv-x="1198" d="M98 565v215h135q-2 8-5 27t-5 27q-26 143-26 217 0 130 59 236t166 169q109 63 236 64.5t231-58.5q88-51 139-139 51-86 51-209H842q0 100-74 141-48 27-110 25.5T543 1249q-107-63-107-198 0-46 21-170 16-83 18-101h287V565H487q-6-142-49-325h645V0H127l43 152q68 245 78 413H98z"/><glyph unicode="¤" horiz-adv-x="1259" d="m135 379 131 131q-27 43-43 78-35 84-35 172 0 91 35 172 16 35 43 78l-131 131 115 114 131-131q47 30 78 43 81 35 172 35 89 0 170-35 36-15 80-43l129 131 114-114-131-131q29-40 43-78 35-81 35-172 0-88-35-172-16-35-43-78l131-131-114-113-129 129q-45-29-78-41-77-35-172-35-98 0-172 35-30 10-78 41L250 266zm209 381q0-80 41-148 19-32 43-53l2-2q28-29 51-41 68-41 150-41 79 0 147 41 30 20 53 43 28 28 43 53 41 68 41 148 0 81-41 149-24 36-40 52l-3 2q-23 23-53 43-68 41-147 41-82 0-150-41-30-20-53-43-21-21-43-54-41-68-41-149z"/><glyph unicode="¥" horiz-adv-x="1531" d="M66 1520h278l422-586 422 586h278L979 842h299V637H885V520h393V315H885V0H647v315H254v205h393v117H254v205h299z"/><glyph unicode="¦" horiz-adv-x="509" d="M160-344v743h196v-743H160zm0 1233v745h196V889H160z"/><glyph unicode="§" horiz-adv-x="1187" d="M106-147 248 45Q407-72 557-84q114-12 199 45 54 35 79 87t13 102q-12 57-77 95t-169 50q-160 22-262 98-104 75-135 195-28 114 14 219 24 69 80 129-105 78-135 197-29 113 8 213 38 106 127 174 108 82 250 82h2q144 0 309-95l-121-207q-103 62-188 62h-2q-60 0-105-33-32-24-45-60.5t-4-72.5q13-51 68-83.5t143-43.5q182-21 301-111 119-87 150-219 27-128-29-250-24-53-59-96 88-78 112-188 30-125-26-250-53-118-166-193-136-88-299-88-35 0-53 2-212 18-431 177zm330 796q12-46 63.5-76T633 532q56-5 117-22 40 34 61 78 21 50 12 96-12 50-61 84-77 47-147 52.5T494 788q-34-25-50.5-64.5T436 649z"/><glyph unicode="¨" horiz-adv-x="966" d="M139 1235q0 59 42 101t102 42q59 0 101-42t42-101q0-60-42-101.5T283 1092q-60 0-102 41.5T139 1235zm406 0q0 59 41.5 101t99.5 42q60 0 101.5-42t41.5-101q0-60-41.5-101.5T686 1092q-59 0-100 41.5T545 1235z"/><glyph unicode="©" horiz-adv-x="1755" d="M111 760q0 157 59 299 60 141 166 244 102 105 244 165 145 60 299 60t299-60q140-60 243-165 108-105 164-244 62-142 62-299 0-154-62-299-56-136-164-244-106-106-243-164Q1038-8 879-8T580 53q-139 59-244 164-106 106-166 244-59 145-59 299zm163 0q0-121 46-231t131-195q86-86 196.5-132T879 156t231.5 46T1307 334q85 85 130.5 195t45.5 231-45.5 231-130.5 197q-176 176-428 176t-428-176q-85-87-131-197t-46-231zm183 0q0 96 35 170 26 70 92 139 57 57 139 94 76 33 170 33t170-33q3-2 9-5t9-5V993q-84 68-188 68-122 0-213-88-86-89-86-213 0-125 86-211 88-88 213-88 126 0 211 88 16 13 29 33V395q-30-21-70-37-78-34-170-34t-170 34q-80 36-139 95-63 63-92 137-35 77-35 170z"/><glyph unicode="ª" horiz-adv-x="661" d="M109 1122q0 74 43 123 53 53 133 53h125v35q0 46-35 66-26 15-62.5 14t-64.5-18q-17-9-27-25l-90 60q22 35 62 57 54 33 116 33 61 3 119-27 44-26 66-63 24-40 24-97V946H285q-84 0-133 53-43 46-43 123zm96 0q0-36 18-57 20-23 62-23h125v158H285q-45 0-62-20-18-21-18-58z"/><glyph unicode="«" horiz-adv-x="1232" d="m76 549 358 477h236L311 549 672 66H436zm430 0 358 477h236L741 549l361-483H866z"/><glyph unicode="¬" horiz-adv-x="1185" d="M20 834v204h1008V481H823v353H20z"/><glyph unicode="­" horiz-adv-x="956" d="M160 657v205h639V657H160z"/><glyph unicode="®" horiz-adv-x="1755" d="M111 760q0 157 59 299 60 141 166 244 102 105 244 165 145 60 299 60t299-60q140-60 243-165 108-105 164-244 62-142 62-299 0-154-62-299-56-136-164-244-106-106-243-164Q1038-8 879-8T580 53q-139 59-244 164-106 106-166 244-59 145-59 299zm163 0q0-121 46-231t131-195q86-86 196.5-132T879 156t231.5 46T1307 334q85 85 130.5 195t45.5 231-45.5 231-130.5 197q-176 176-428 176t-428-176q-85-87-131-197t-46-231zm320-436v872h258q142 0 219-86 72-78 72-203 0-124-72-202-39-45-100-66l233-315h-153L831 618H731V324H594zm137 417h121q86 0 127 47 39 41 39 119t-39 119q-41 47-127 47H731V741z"/><glyph unicode="°" horiz-adv-x="731" d="M111 1378q0 108 73 181 75 75 181 75 108 0 180-75 76-73 76-181 0-104-76-180-74-74-180-74-104 0-181 74-73 76-73 180zm125 0q0-54 38-91.5t91-37.5q54 0 91.5 37.5T494 1378t-37.5 91.5T365 1507q-53 0-91-37.5t-38-91.5z"/><glyph unicode="±" horiz-adv-x="1112" d="M84 0v205h946V0H84zm0 709v204h371v371h204V913h371V709H659V338H455v371H84z"/><glyph unicode="²" horiz-adv-x="720" d="m92 1010 70 90q124 167 264 352 36 49 39 82 6 23-6 43t-37 30-53 5q-35-6-56-27-27-24-39-67l-100 59q20 53 62 92 49 43 114 55 63 9 119.5-15t85.5-73q32-56 23-118-9-64-60-134-4-5-196-262h272v-112H92z"/><glyph unicode="³" horiz-adv-x="718" d="m106 1098 64 90q79-55 151-64.5t123 27.5q37 28 52.5 72t1.5 82q-11 35-47 57-46 27-121 27h-97l125 225H152v112h395l-129-233q40-9 90-35 72-44 96-119 24-69-2-151-25-76-90-125-71-53-164-53h-16q-113 6-226 88z"/><glyph unicode="´" horiz-adv-x="460" d="m90 1268 100 252h226l-176-252H90z"/><glyph unicode="µ" horiz-adv-x="1048" d="M160-311v1403h170V371q0-95 67-150 66-51 166-51 103 0 166 51 68 53 68 150v721h172V0H797v61Q699 0 563 0 431 0 330 61v-372H160z"/><glyph unicode="¶" horiz-adv-x="1222" d="M74 1186q0 142 82 233 92 101 252 101h712l-143-205V-205H772v1520H633V-205H428V852h-20q-161 0-252 100-82 91-82 234z"/><glyph unicode="·" horiz-adv-x="509" d="M113 760q0 60 41.5 101.5T256 903q59 0 101-41.5T399 760q0-59-42.5-101.5T256 616q-60 0-101.5 42.5T113 760z"/><glyph unicode="¸" horiz-adv-x="643" d="m49-330 82 107 14-13q87-61 152-73 10-2 29-2 25 0 45 10 26 20 20 51-3 21-24 39-33 26-84 35l-107 18L289 0h168l-54-74q33-18 52-35 57-48 69-116 10-55-12.5-107.5T442-416q-52-30-116-30h-2q-16 0-52 4-99 18-206 100z"/><glyph unicode="¹" horiz-adv-x="425" d="m2 1526 268 200v-716H158v493l-88-67z"/><glyph unicode="º" horiz-adv-x="786" d="M111 1223q0 116 82 198 81 84 200 84 118 0 199-84 84-81 84-198 0-120-84-201-82-82-199-82-118 0-200 82t-82 201zm116 0q0-69 48.5-117.5T393 1057t117.5 48.5T559 1223t-48.5 117.5T393 1389t-117.5-48.5T227 1223z"/><glyph unicode="»" horiz-adv-x="1232" d="m131 66 361 483-361 477h236l360-477L367 66H131zm430 0 361 483-361 477h236l360-477L797 66H561z"/><glyph unicode="¼" horiz-adv-x="1404" d="m123 1323 268 199V805H279v493l-89-65zM164 0l829 1520h197L360 0H164zm573 125 469 625V236h66V125h-66V0h-112v125H737zm224 111h133v178z"/><glyph unicode="½" horiz-adv-x="1437" d="m121 1323 268 199V805H276v493l-88-65zM162 0l829 1520h197L358 0H162zm657 0 70 90q124 167 264 352 36 49 39 82 3 25-6 43-12 20-37 30t-53 5q-34-6-58-27-29-29-37-67l-100 59q20 53 62 92 50 44 114 56 63 9 119.5-15t85.5-73q32-56 23-119t-60-133q-4-5-196-262h272V0H819z"/><glyph unicode="¾" horiz-adv-x="1429" d="m104 891 66 92q78-57 149.5-66.5T442 946q37 28 52.5 71t3.5 81q-12 36-49 57-48 30-121 27h-95l123 227H150v111h395l-127-234q52-13 90-35 70-45 94-116 25-76 0-152-29-81-92-127-71-53-162-53h-18q-105 6-226 88zM266 0l830 1520h196L463 0H266zm492 125 467 625V236h67V125h-67V0h-113v125H758zm223 111h131v178z"/><glyph unicode="¿" horiz-adv-x="1204" d="M111 23q29 159 192 339 10 12 35 37 75 75 123 160 59 109 65 225 50-28 131-28 71 0 121 28-6-169-94-327-58-105-158-205-7-6-17-17t-11-12Q405 122 367 20q-32-100 14-161 41-54 121-72 36-10 84-10 42 0 90 10 74 21 117 70 54 57 57 151h252q-3-157-103-278-93-113-249-154-73-22-164-22-128 0-239.5 49T172-264Q80-141 111 23zm409 995q0 57 40 97t97 40 97.5-40 40.5-97-40.5-97-97.5-40-97 40-40 97z"/><glyph unicode="À" d="m51 0 662 1589L1372 0h-260L983 326H442L313 0H51zm477 539h369l-184 462zm7 1405h213l143-240H748z"/><glyph unicode="Á" d="m51 0 662 1589L1372 0h-260L983 326H442L313 0H51zm477 539h369l-184 462zm72 1165 143 240h213l-213-240H600z"/><glyph unicode="Â" d="m51 0 662 1589L1372 0h-260L983 326H442L313 0H51zm453 1706 215 238 199-240-82-70-121 146-131-146zm24-1167h369l-184 462z"/><glyph unicode="Ã" d="m51 0 662 1589L1372 0h-260L983 326H442L313 0H51zm385 1692v24q0 34 21 74 18 31 49 49 48 31 112 31h3q61-3 122-31 37-18 70-18 26 0 43 10 18 12 18 35v26h111v-26q0-42-18-76-16-31-52-53-43-27-100-27-58 0-121 29-35 18-76 18-35 0-53-12-16-9-16-29v-24H436zm92-1153h369l-184 462z"/><glyph unicode="Ä" d="m51 0 662 1589L1372 0h-260L983 326H442L313 0H51zm406 1839q0 43 30.5 74t73.5 31 74-31 31-74-31-73.5-74-30.5-73.5 30.5T457 1839zm71-1300h369l-184 462zm230 1300q0 43 30.5 74t73.5 31 74-31 31-74-31-73.5-74-30.5-73.5 30.5T758 1839z"/><glyph unicode="Å" d="m51 0 662 1589L1372 0h-260L983 326H442L313 0H51zm477 539h369l-184 462zm27 1302q0 65 45.5 110.5T711 1997q66 0 111.5-45.5T868 1841q0-66-45.5-112T711 1683q-65 0-110.5 46T555 1841zm94 0q0-26 18.5-44.5T711 1778q26 0 44.5 18.5T774 1841q0 25-18.5 43.5T711 1903q-25 0-43.5-18.5T649 1841z"/><glyph unicode="Æ" horiz-adv-x="1943" d="m51 0 662 1589 28-69h613v-213H829l168-406h502V686h-414l197-471h610V0h-782 2L983 326H442L313 0H51zm477 539h369l-184 462z"/><glyph unicode="Ç" horiz-adv-x="1386" d="M96 760q0 152 60 297 60 138 163 241 108 108 242 162 135 60 295 60 159 0 297-60 5-2 16.5-7t16.5-7v-281q-142 117-330 117-105 0-200.5-39.5T487 1128q-74-74-113.5-169T334 760t39.5-199.5T487 391t169.5-113.5T856 238t199.5 39.5T1225 391q23 23 51 58V125q-65-42-123-66Q1026 6 889 0l-53-74q36-20 51-35 55-44 71-116 11-56-12-108t-72-83q-50-30-116-30-19 0-51 4-102 19-209 100l-17 12 82 107 17-13q82-61 149-73 10-2 29-2 28 0 45 10 28 19 22 51-3 19-26 39-29 26-82 35l-107 18L731 10q-94 16-170 49-135 57-242 164-105 105-163 242-60 142-60 295z"/><glyph unicode="È" horiz-adv-x="1191" d="M160 0h911v215H397v471h555v215H397v406h674v213H160V0zm299 1923h215l143-240H674z"/><glyph unicode="É" horiz-adv-x="1191" d="M160 0v1520h911v-213H397V901h555V686H397V215h674V0H160zm299 1683 143 240h215l-215-240H459z"/><glyph unicode="Ê" horiz-adv-x="1191" d="M160 0v1520h911v-213H397V901h555V686H397V215h674V0H160zm250 1747 213 238 200-240-82-70-123 146-129-146z"/><glyph unicode="Ë" horiz-adv-x="1191" d="M160 0v1520h911v-213H397V901h555V686H397V215h674V0H160zm200 1819q0 43 31 73.5t74 30.5 73.5-30.5T569 1819t-30.5-74-73.5-31-74 31-31 74zm302 0q0 43 30.5 73.5T766 1923t73.5-30.5T870 1819t-30.5-74-73.5-31-73.5 31-30.5 74z"/><glyph unicode="Ì" horiz-adv-x="583" d="M33 1923h215l141-240H248zM174 0h238v1520H174V0z"/><glyph unicode="Í" horiz-adv-x="583" d="M172 0v1520h238V0H172zm23 1683 143 240h213l-213-240H195z"/><glyph unicode="Î" horiz-adv-x="557" d="m74 1747 213 238 200-240-81-70-121 146-131-146zM162 0v1520h237V0H162z"/><glyph unicode="Ï" horiz-adv-x="557" d="M25 1819q0 43 31 73.5t75 30.5q43 0 74-30.5t31-73.5-31-74-74-31q-44 0-75 31t-31 74zM162 0v1520h237V0H162zm164 1819q0 43 31 73.5t75 30.5q43 0 74-30.5t31-73.5-31-74-74-31q-44 0-75 31t-31 74z"/><glyph unicode="Ð" horiz-adv-x="1519" d="M160 657v205h137v658h360q189 0 332-60 143-55 244-168 184-202 184-532 0-331-184-533-101-113-244-168Q841 0 657 0H297v657H160zm375-419h122q263 0 400 149 123 135 123 373t-123 373q-134 149-400 149H535V862h253V657H535V238z"/><glyph unicode="Ñ" horiz-adv-x="1511" d="M160 0v1591l954-1046v975h240V-70L397 977V0H160zm321 1671v25q0 33 21 73 19 32 49 50 47 30 113 30h2q64-3 122-30 36-19 70-19 26 0 43 10 19 13 19 35v27h110v-27q0-41-18-76-17-32-51-53-42-26-101-26-60 0-121 28-37 19-75 19-34 0-54-13-16-9-16-28v-25H481z"/><glyph unicode="Ò" horiz-adv-x="1738" d="M111 760q0-156 59-295 57-135 164-242T575 59Q714 0 870 0q155 0 297 59 132 57 242 164 103 103 162 242t59 295q0 155-59 297-58 134-162 241-106 103-242 162-145 60-297 60-153 0-295-60-137-58-241-162-107-111-164-241-59-142-59-297zm237 0q0 104 40 199t114 169 169 114 199 40 199.5-40 169.5-114 114-169 40-199-40-199.5T1239 391t-169.5-113.5T870 238t-199 39.5T502 391 388 560.5 348 760zm242 1163h215l141-240H805z"/><glyph unicode="Ó" horiz-adv-x="1738" d="M111 760q0 155 59 297 57 130 164 241 104 104 241 162 142 60 295 60 152 0 297-60 136-59 242-162 104-107 162-241 59-142 59-297 0-156-59-295t-162-242q-110-107-242-164Q1025 0 870 0 714 0 575 59q-134 57-241 164T170 465q-59 139-59 295zm237 0q0-104 40-199.5T502 391t169-113.5T870 238t199.5 39.5T1239 391t114 169.5 40 199.5-40 199-114 169-169.5 114-199.5 40-199-40-169-114-114-169-40-199zm457 923 143 240h213l-213-240H805z"/><glyph unicode="Ô" horiz-adv-x="1738" d="M111 760q0 155 59 297 57 130 164 241 104 104 241 162 142 60 295 60 152 0 297-60 136-59 242-162 104-107 162-241 59-142 59-297 0-156-59-295t-162-242q-110-107-242-164Q1025 0 870 0 714 0 575 59q-134 57-241 164T170 465q-59 139-59 295zm237 0q0-104 40-199.5T502 391t169-113.5T870 238t199.5 39.5T1239 391t114 169.5 40 199.5-40 199-114 169-169.5 114-199.5 40-199-40-169-114-114-169-40-199zm316 987 213 238 200-240-82-70-121 146-131-146z"/><glyph unicode="Õ" horiz-adv-x="1738" d="M111 760q0 155 59 297 57 130 164 241 104 104 241 162 142 60 295 60 152 0 297-60 136-59 242-162 104-107 162-241 59-142 59-297 0-156-59-295t-162-242q-110-107-242-164Q1025 0 870 0 714 0 575 59q-134 57-241 164T170 465q-59 139-59 295zm237 0q0-104 40-199.5T502 391t169-113.5T870 238t199.5 39.5T1239 391t114 169.5 40 199.5-40 199-114 169-169.5 114-199.5 40-199-40-169-114-114-169-40-199zm248 911v25q0 40 20 73 14 29 50 50 47 30 112 30h2q65-3 123-30 36-19 70-19 26 0 43 10 18 12 18 35v27h111v-27q0-40-19-76-14-27-51-53-42-26-102-26-58 0-119 28-37 19-76 19-34 0-53-13-16-9-16-28v-25H596z"/><glyph unicode="Ö" horiz-adv-x="1738" d="M111 760q0 155 59 297 57 130 164 241 104 104 241 162 142 60 295 60 152 0 297-60 136-59 242-162 104-107 162-241 59-142 59-297 0-156-59-295t-162-242q-110-107-242-164Q1025 0 870 0 714 0 575 59q-134 57-241 164T170 465q-59 139-59 295zm237 0q0-104 40-199.5T502 391t169-113.5T870 238t199.5 39.5T1239 391t114 169.5 40 199.5-40 199-114 169-169.5 114-199.5 40-199-40-169-114-114-169-40-199zm266 1059q0 43 31.5 73.5T721 1923q43 0 73.5-30.5T825 1819t-30.5-74-73.5-31q-44 0-75.5 31t-31.5 74zm301 0q0 43 31.5 73.5t75.5 30.5q43 0 73.5-30.5t30.5-73.5-30.5-74-73.5-31q-44 0-75.5 31t-31.5 74z"/><glyph unicode="×" horiz-adv-x="1116" d="m123 465 295 295-295 297 139 139 297-297 295 297 70-70 69-69-295-297 295-295-69-70-70-71-295 297-297-297-69 71z"/><glyph unicode="Ø" horiz-adv-x="1734" d="M109 760q0 155 59 297 57 130 164 241 104 104 241 162 142 60 295 60 140 0 262-45 6-2 17.5-7.5t17.5-7.5q35-14 76-37l135 185h238l-219-299q10-10 12-11 104-107 162-241 59-142 59-297 0-156-59-295t-162-242q-110-107-242-164Q1023 0 868 0 733 0 606 47q-5 2-16.5 6T573 59q-28 12-75 37L360-88H123l221 299-12 12Q225 330 168 465q-59 139-59 295zm237 0q0-207 141-357l611 826q-62 27-82 33-78 20-148 20-104 0-199-40t-169-114-114-169-40-199zm293-469q50-22 82-31 74-22 147-22 104 0 199.5 39.5T1237 391t114 169.5 40 199.5q0 204-140 356z"/><glyph unicode="Ù" horiz-adv-x="1415" d="M145 516q0-127 52-231 48-98 135-164Q487 0 709 0q221 0 376 121 85 67 136 164 51 108 51 231v1004h-240V516q0-136-92-207-93-71-231-71-142 0-232 71-94 72-94 207v1004H145V516zm385 1407h213l144-240H743z"/><glyph unicode="Ú" horiz-adv-x="1415" d="M145 516v1004h238V516q0-135 94-207 90-71 232-71 138 0 231 71 92 71 92 207v1004h240V516q0-123-51-231-51-97-136-164Q930 0 709 0 487 0 332 121q-87 66-135 164-52 104-52 231zm385 1167 142 240h215l-215-240H530z"/><glyph unicode="Û" horiz-adv-x="1415" d="M145 516v1004h238V516q0-135 94-207 90-71 232-71 138 0 231 71 92 71 92 207v1004h240V516q0-123-51-231-51-97-136-164Q930 0 709 0 487 0 332 121q-87 66-135 164-52 104-52 231zm357 1231 213 238 200-240-81-70-121 146-131-146z"/><glyph unicode="Ü" horiz-adv-x="1415" d="M145 516v1004h238V516q0-135 94-207 90-71 232-71 138 0 231 71 92 71 92 207v1004h240V516q0-123-51-231-51-97-136-164Q930 0 709 0 487 0 332 121q-87 66-135 164-52 104-52 231zm308 1303q0 43 30.5 73.5T557 1923t74-30.5 31-73.5-31-74-74-31-73.5 31-30.5 74zm301 0q0 43 30.5 73.5T858 1923t74-30.5 31-73.5-31-74-74-31-73.5 31-30.5 74z"/><glyph unicode="Ý" horiz-adv-x="1409" d="M53 1520h256l398-541 397 541h254L825 795V0H588v795zm518 163 144 240h213l-213-240H571z"/><glyph unicode="Þ" horiz-adv-x="1163" d="M160 0v1520h237v-189h224q243 0 378-151 123-138 123-353 0-217-123-352-132-151-378-151H397V0H160zm237 539h224q148 0 221 79 67 74 67 209 0 133-67 207-73 82-221 82H397V539z"/><glyph unicode="ß" horiz-adv-x="1251" d="M160 0v1196q0 89 46.5 161.5T338 1473q113 56 256 47 139-12 254-93 107-78 151-204 43-127 2-248-24-77-81-137 111-66 170-167t59-212q0-97-41-178-40-84-121-150Q826 0 555 0h-51v238h51q187 0 283 79 73 61 73 142 0 87-77 149-100 82-285 82h-45v240h22q100 0 165 31.5t85 89.5q15 47-4 98.5t-65 85.5q-56 41-136 46.5T444 1260q-47-25-47-64V0H160z"/><glyph unicode="à" d="m51 0 662 1589L1372 0h-260L983 326H442L313 0H51zm477 539h369l-184 462zm7 1405h213l143-240H748z"/><glyph unicode="á" d="m51 0 662 1589L1372 0h-260L983 326H442L313 0H51zm477 539h369l-184 462zm72 1165 143 240h213l-213-240H600z"/><glyph unicode="â" d="m51 0 662 1589L1372 0h-260L983 326H442L313 0H51zm453 1706 215 238 199-240-82-70-121 146-131-146zm24-1167h369l-184 462z"/><glyph unicode="ã" d="m51 0 662 1589L1372 0h-260L983 326H442L313 0H51zm385 1692v24q0 34 21 74 18 31 49 49 48 31 112 31h3q61-3 122-31 37-18 70-18 26 0 43 10 18 12 18 35v26h111v-26q0-42-18-76-16-31-52-53-43-27-100-27-58 0-121 29-35 18-76 18-35 0-53-12-16-9-16-29v-24H436zm92-1153h369l-184 462z"/><glyph unicode="ä" d="m51 0 662 1589L1372 0h-260L983 326H442L313 0H51zm406 1839q0 43 30.5 74t73.5 31 74-31 31-74-31-73.5-74-30.5-73.5 30.5T457 1839zm71-1300h369l-184 462zm230 1300q0 43 30.5 74t73.5 31 74-31 31-74-31-73.5-74-30.5-73.5 30.5T758 1839z"/><glyph unicode="å" d="m51 0 662 1589L1372 0h-260L983 326H442L313 0H51zm477 539h369l-184 462zm27 1302q0 65 45.5 110.5T711 1997q66 0 111.5-45.5T868 1841q0-66-45.5-112T711 1683q-65 0-110.5 46T555 1841zm94 0q0-26 18.5-44.5T711 1778q26 0 44.5 18.5T774 1841q0 25-18.5 43.5T711 1903q-25 0-43.5-18.5T649 1841z"/><glyph unicode="æ" horiz-adv-x="1943" d="m51 0 662 1589 28-69h613v-213H829l168-406h502V686h-414l197-471h610V0h-782 2L983 326H442L313 0H51zm477 539h369l-184 462z"/><glyph unicode="ç" horiz-adv-x="1386" d="M96 760q0 152 60 297 60 138 163 241 108 108 242 162 135 60 295 60 159 0 297-60 5-2 16.5-7t16.5-7v-281q-142 117-330 117-105 0-200.5-39.5T487 1128q-74-74-113.5-169T334 760t39.5-199.5T487 391t169.5-113.5T856 238t199.5 39.5T1225 391q23 23 51 58V125q-65-42-123-66Q1026 6 889 0l-53-74q36-20 51-35 55-44 71-116 11-56-12-108t-72-83q-50-30-116-30-19 0-51 4-102 19-209 100l-17 12 82 107 17-13q82-61 149-73 10-2 29-2 28 0 45 10 28 19 22 51-3 19-26 39-29 26-82 35l-107 18L731 10q-94 16-170 49-135 57-242 164-105 105-163 242-60 142-60 295z"/><glyph unicode="è" horiz-adv-x="1191" d="M160 0h911v215H397v471h555v215H397v406h674v213H160V0zm299 1923h215l143-240H674z"/><glyph unicode="é" horiz-adv-x="1191" d="M160 0v1520h911v-213H397V901h555V686H397V215h674V0H160zm299 1683 143 240h215l-215-240H459z"/><glyph unicode="ê" horiz-adv-x="1191" d="M160 0v1520h911v-213H397V901h555V686H397V215h674V0H160zm250 1747 213 238 200-240-82-70-123 146-129-146z"/><glyph unicode="ë" horiz-adv-x="1191" d="M160 0v1520h911v-213H397V901h555V686H397V215h674V0H160zm200 1819q0 43 31 73.5t74 30.5 73.5-30.5T569 1819t-30.5-74-73.5-31-74 31-31 74zm302 0q0 43 30.5 73.5T766 1923t73.5-30.5T870 1819t-30.5-74-73.5-31-73.5 31-30.5 74z"/><glyph unicode="ì" horiz-adv-x="583" d="M33 1923h215l141-240H248zM174 0h238v1520H174V0z"/><glyph unicode="í" horiz-adv-x="583" d="M172 0v1520h238V0H172zm23 1683 143 240h213l-213-240H195z"/><glyph unicode="î" horiz-adv-x="557" d="m74 1747 213 238 200-240-81-70-121 146-131-146zM162 0v1520h237V0H162z"/><glyph unicode="ï" horiz-adv-x="557" d="M25 1819q0 43 31 73.5t75 30.5q43 0 74-30.5t31-73.5-31-74-74-31q-44 0-75 31t-31 74zM162 0v1520h237V0H162zm164 1819q0 43 31 73.5t75 30.5q43 0 74-30.5t31-73.5-31-74-74-31q-44 0-75 31t-31 74z"/><glyph unicode="ð" horiz-adv-x="1519" d="M160 657v205h137v658h360q189 0 332-60 143-55 244-168 184-202 184-532 0-331-184-533-101-113-244-168Q841 0 657 0H297v657H160zm375-419h122q263 0 400 149 123 135 123 373t-123 373q-134 149-400 149H535V862h253V657H535V238z"/><glyph unicode="ñ" horiz-adv-x="1511" d="M160 0v1591l954-1046v975h240V-70L397 977V0H160zm321 1671v25q0 33 21 73 19 32 49 50 47 30 113 30h2q64-3 122-30 36-19 70-19 26 0 43 10 19 13 19 35v27h110v-27q0-41-18-76-17-32-51-53-42-26-101-26-60 0-121 28-37 19-75 19-34 0-54-13-16-9-16-28v-25H481z"/><glyph unicode="ò" horiz-adv-x="1738" d="M111 760q0-156 59-295 57-135 164-242T575 59Q714 0 870 0q155 0 297 59 132 57 242 164 103 103 162 242t59 295q0 155-59 297-58 134-162 241-106 103-242 162-145 60-297 60-153 0-295-60-137-58-241-162-107-111-164-241-59-142-59-297zm237 0q0 104 40 199t114 169 169 114 199 40 199.5-40 169.5-114 114-169 40-199-40-199.5T1239 391t-169.5-113.5T870 238t-199 39.5T502 391 388 560.5 348 760zm242 1163h215l141-240H805z"/><glyph unicode="ó" horiz-adv-x="1738" d="M111 760q0 155 59 297 57 130 164 241 104 104 241 162 142 60 295 60 152 0 297-60 136-59 242-162 104-107 162-241 59-142 59-297 0-156-59-295t-162-242q-110-107-242-164Q1025 0 870 0 714 0 575 59q-134 57-241 164T170 465q-59 139-59 295zm237 0q0-104 40-199.5T502 391t169-113.5T870 238t199.5 39.5T1239 391t114 169.5 40 199.5-40 199-114 169-169.5 114-199.5 40-199-40-169-114-114-169-40-199zm457 923 143 240h213l-213-240H805z"/><glyph unicode="ô" horiz-adv-x="1738" d="M111 760q0 155 59 297 57 130 164 241 104 104 241 162 142 60 295 60 152 0 297-60 136-59 242-162 104-107 162-241 59-142 59-297 0-156-59-295t-162-242q-110-107-242-164Q1025 0 870 0 714 0 575 59q-134 57-241 164T170 465q-59 139-59 295zm237 0q0-104 40-199.5T502 391t169-113.5T870 238t199.5 39.5T1239 391t114 169.5 40 199.5-40 199-114 169-169.5 114-199.5 40-199-40-169-114-114-169-40-199zm316 987 213 238 200-240-82-70-121 146-131-146z"/><glyph unicode="õ" horiz-adv-x="1738" d="M111 760q0 155 59 297 57 130 164 241 104 104 241 162 142 60 295 60 152 0 297-60 136-59 242-162 104-107 162-241 59-142 59-297 0-156-59-295t-162-242q-110-107-242-164Q1025 0 870 0 714 0 575 59q-134 57-241 164T170 465q-59 139-59 295zm237 0q0-104 40-199.5T502 391t169-113.5T870 238t199.5 39.5T1239 391t114 169.5 40 199.5-40 199-114 169-169.5 114-199.5 40-199-40-169-114-114-169-40-199zm248 911v25q0 40 20 73 14 29 50 50 47 30 112 30h2q65-3 123-30 36-19 70-19 26 0 43 10 18 12 18 35v27h111v-27q0-40-19-76-14-27-51-53-42-26-102-26-58 0-119 28-37 19-76 19-34 0-53-13-16-9-16-28v-25H596z"/><glyph unicode="ö" horiz-adv-x="1738" d="M111 760q0 155 59 297 57 130 164 241 104 104 241 162 142 60 295 60 152 0 297-60 136-59 242-162 104-107 162-241 59-142 59-297 0-156-59-295t-162-242q-110-107-242-164Q1025 0 870 0 714 0 575 59q-134 57-241 164T170 465q-59 139-59 295zm237 0q0-104 40-199.5T502 391t169-113.5T870 238t199.5 39.5T1239 391t114 169.5 40 199.5-40 199-114 169-169.5 114-199.5 40-199-40-169-114-114-169-40-199zm266 1059q0 43 31.5 73.5T721 1923q43 0 73.5-30.5T825 1819t-30.5-74-73.5-31q-44 0-75.5 31t-31.5 74zm301 0q0 43 31.5 73.5t75.5 30.5q43 0 73.5-30.5t30.5-73.5-30.5-74-73.5-31q-44 0-75.5 31t-31.5 74z"/><glyph unicode="÷" horiz-adv-x="1290" d="M29 666v188h1235V666H29zm473-275q0 60 42 102t101 42q60 0 101.5-42T788 391q0-59-41.5-101T645 248q-59 0-101 42t-42 101zm0 737q0 60 42 102t101 42q60 0 101.5-42t41.5-102q0-59-41.5-101T645 985q-59 0-101 42.5T502 1128z"/><glyph unicode="ø" horiz-adv-x="1734" d="M109 760q0 155 59 297 57 130 164 241 104 104 241 162 142 60 295 60 140 0 262-45 6-2 17.5-7.5t17.5-7.5q35-14 76-37l135 185h238l-219-299q10-10 12-11 104-107 162-241 59-142 59-297 0-156-59-295t-162-242q-110-107-242-164Q1023 0 868 0 733 0 606 47q-5 2-16.5 6T573 59q-28 12-75 37L360-88H123l221 299-12 12Q225 330 168 465q-59 139-59 295zm237 0q0-207 141-357l611 826q-62 27-82 33-78 20-148 20-104 0-199-40t-169-114-114-169-40-199zm293-469q50-22 82-31 74-22 147-22 104 0 199.5 39.5T1237 391t114 169.5 40 199.5q0 204-140 356z"/><glyph unicode="ù" horiz-adv-x="1415" d="M145 516q0-127 52-231 48-98 135-164Q487 0 709 0q221 0 376 121 85 67 136 164 51 108 51 231v1004h-240V516q0-136-92-207-93-71-231-71-142 0-232 71-94 72-94 207v1004H145V516zm385 1407h213l144-240H743z"/><glyph unicode="ú" horiz-adv-x="1415" d="M145 516v1004h238V516q0-135 94-207 90-71 232-71 138 0 231 71 92 71 92 207v1004h240V516q0-123-51-231-51-97-136-164Q930 0 709 0 487 0 332 121q-87 66-135 164-52 104-52 231zm385 1167 142 240h215l-215-240H530z"/><glyph unicode="û" horiz-adv-x="1415" d="M145 516v1004h238V516q0-135 94-207 90-71 232-71 138 0 231 71 92 71 92 207v1004h240V516q0-123-51-231-51-97-136-164Q930 0 709 0 487 0 332 121q-87 66-135 164-52 104-52 231zm357 1231 213 238 200-240-81-70-121 146-131-146z"/><glyph unicode="ü" horiz-adv-x="1415" d="M145 516v1004h238V516q0-135 94-207 90-71 232-71 138 0 231 71 92 71 92 207v1004h240V516q0-123-51-231-51-97-136-164Q930 0 709 0 487 0 332 121q-87 66-135 164-52 104-52 231zm308 1303q0 43 30.5 73.5T557 1923t74-30.5 31-73.5-31-74-74-31-73.5 31-30.5 74zm301 0q0 43 30.5 73.5T858 1923t74-30.5 31-73.5-31-74-74-31-73.5 31-30.5 74z"/><glyph unicode="ý" horiz-adv-x="1409" d="M53 1520h256l398-541 397 541h254L825 795V0H588v795zm518 163 144 240h213l-213-240H571z"/><glyph unicode="þ" horiz-adv-x="1163" d="M160 0v1520h237v-189h224q243 0 378-151 123-138 123-353 0-217-123-352-132-151-378-151H397V0H160zm237 539h224q148 0 221 79 67 74 67 209 0 133-67 207-73 82-221 82H397V539z"/><glyph unicode="ÿ" horiz-adv-x="1409" d="M53 1520h256l398-541 397 541h254L825 795V0H588v795zm398 299q0 43 30.5 73.5T555 1923t73.5-30.5T659 1819t-30.5-74-73.5-31-73.5 31-30.5 74zm301 0q0 43 30.5 73.5T856 1923t74-30.5 31-73.5-31-74-74-31-73.5 31-30.5 74z"/><glyph unicode="Œ" horiz-adv-x="2486" d="M172 760q0 155 59 297 57 130 164 241 103 103 242 162 142 60 295 60 152 0 297-60 120-50 225-147v207h911v-213h-673V901h555V686h-555V215h673V0h-911v207q-107-99-225-148Q1087 0 932 0 776 0 637 59q-135 57-242 164T231 465q-59 139-59 295zm238 0q0-104 39.5-199.5T563 391t169.5-113.5T932 238t199 39.5T1300 391t114 169.5 40 199.5-40 199-114 169-169 114-199 40-199.5-40T563 1128 449.5 959 410 760z"/><glyph unicode="œ" horiz-adv-x="2459" d="M123 760q0 155 59 297 57 130 164 241 103 103 242 162 142 60 295 60 152 0 297-60 120-50 225-147v207h911v-213h-674V901h556V686h-556V215h674V0h-911v207q-107-99-225-148Q1038 0 883 0 727 0 588 59q-135 57-242 164T182 465q-59 139-59 295zm237 0q0-104 40-199.5T514 391t169.5-113.5T883 238t199 39.5T1251 391t114 169.5 40 199.5-40 199-114 169-169 114-199 40-199.5-40T514 1128 400 959t-40-199z"/><glyph unicode="Ÿ" horiz-adv-x="1409" d="M53 1520h256l398-541 397 541h254L825 795V0H588v795zm398 299q0 43 30.5 73.5T555 1923t73.5-30.5T659 1819t-30.5-74-73.5-31-73.5 31-30.5 74zm301 0q0 43 30.5 73.5T856 1923t74-30.5 31-73.5-31-74-74-31-73.5 31-30.5 74z"/><glyph unicode="ˆ" horiz-adv-x="540" d="m61 1284 213 236 201-238-82-70-121 144-131-144z"/><glyph unicode="˜" horiz-adv-x="763" d="M106 1321v25q0 39 19 71 21 36 51 51 50 29 111 29h4q60 0 123-29 34-18 69-18 26 0 43 10 17 8 17 35v25h112v-25q0-41-18-76-17-33-51-53-47-29-103-29-61 0-121 31-37 18-75 18-33 0-54-12-16-11-16-28v-25H106z"/><glyph horiz-adv-x="998"/><glyph horiz-adv-x="1997"/><glyph horiz-adv-x="998"/><glyph horiz-adv-x="1997"/><glyph horiz-adv-x="665"/><glyph horiz-adv-x="499"/><glyph horiz-adv-x="332"/><glyph horiz-adv-x="332"/><glyph horiz-adv-x="249"/><glyph horiz-adv-x="399"/><glyph horiz-adv-x="110"/><glyph unicode="‐" horiz-adv-x="956" d="M160 657v205h639V657H160z"/><glyph unicode="‑" horiz-adv-x="956" d="M160 657v205h639V657H160z"/><glyph unicode="‒" horiz-adv-x="956" d="M160 657v205h639V657H160z"/><glyph unicode="–" horiz-adv-x="1122" d="M160 657v205h805V657H160z"/><glyph unicode="—" horiz-adv-x="1714" d="M160 657v205h1394V657H160z"/><glyph unicode="‘" horiz-adv-x="581" d="M162 1380q0 59 41.5 101.5T305 1524q59 0 101.5-43t42.5-101q0-57-40.5-98.5T311 1237l49-219h-81l-107 309q-10 27-10 53z"/><glyph unicode="’" horiz-adv-x="581" d="M133 1380q0 59 41.5 101.5T276 1524q58 0 101-43t43-101q0-26-10-53l-109-309h-82l49 219q-57 3-96 44.5t-39 98.5z"/><glyph unicode="‚" horiz-adv-x="579" d="M131 143q0 59 41.5 100.5T274 285q59 0 101.5-42T418 143q0-26-10-53L299-219h-82L266 0q-57 3-96 44t-39 99z"/><glyph unicode="“" horiz-adv-x="899" d="M162 1380q0 59 41.5 101.5T305 1524q59 0 101.5-43t42.5-101q0-57-40.5-98.5T311 1237l49-219h-81l-107 309q-10 27-10 53zm317 0q0 59 42 101.5t102 42.5q58 0 100.5-42.5T766 1380q0-57-40-98.5t-97-44.5l49-219h-82l-107 309q-10 27-10 53z"/><glyph unicode="”" horiz-adv-x="899" d="M133 1380q0 59 41.5 101.5T276 1524q58 0 101-43t43-101q0-26-10-53l-109-309h-82l49 219q-57 3-96 44.5t-39 98.5zm318 0q0 59 41.5 101.5T594 1524q58 0 100.5-42.5T737 1380q0-26-10-53l-109-309h-81l49 219q-57 3-96 44.5t-39 98.5z"/><glyph unicode="„" horiz-adv-x="897" d="M131 143q0 59 41.5 100.5T274 285q59 0 101.5-42T418 143q0-26-10-53L299-219h-82L266 0q-57 3-96 44t-39 99zm318 0q0 59 41.5 100.5T592 285q59 0 101-42t42-100q0-26-10-53L616-219h-81L584 0q-57 3-96 44t-39 99z"/><glyph unicode="•" horiz-adv-x="628" d="M111 760q0 85 59.5 145T315 965t145-60 60-145-60-145-145-60-144.5 60T111 760z"/><glyph unicode="…" horiz-adv-x="1554" d="M147 143q0 59 42 101.5T291 287q58 0 100.5-42.5T434 143q0-60-42-101.5T291 0q-60 0-102 41.5T147 143zm488 0q0 59 41.5 101.5T776 287q60 0 102-42.5T920 143q0-60-42-101.5T776 0q-59 0-100 41.5T635 143zm485 0q0 59 42 101.5t102 42.5q58 0 100.5-42.5T1407 143q0-60-42-101.5T1264 0q-60 0-102 41.5T1120 143z"/><glyph horiz-adv-x="399"/><glyph unicode="‹" horiz-adv-x="743" d="m35 549 358 477h236L270 549 631 66H395z"/><glyph unicode="›" horiz-adv-x="743" d="m113 66 360 483-360 477h235l361-477L348 66H113z"/><glyph horiz-adv-x="499"/><glyph unicode="€" horiz-adv-x="1353" d="M68 522v191h118q-2 16-2 47 0 33 2 47H68v190h151q55 174 172 297 101 107 227 164 133 62 281 62 167 0 313-76l-108-211q-98 49-205 49-136 0-249.5-78T475 997h561V807H424q0-7-1-23t-1-24 1-23.5 1-23.5h612V522H475q61-128 174.5-206T899 238q109 0 209 53l113-211Q1070 0 899 0 749 0 618 61q-126 57-227 164-119 127-172 297H68z"/><glyph unicode="™" horiz-adv-x="1703" d="M115 1485v117h579v-117H469V782H340v703H115zm661-703v856l385-573 385 573V782h-129v435l-256-381-256 381V782H776z"/><glyph unicode="◼" horiz-adv-x="1515" d="M0 0v1516h1516V0H0z"/></font>
</defs>
</svg>
